<svg width="1173" height="112" viewBox="0 0 1173 112" fill="none" xmlns="http://www.w3.org/2000/svg">
<path d="M498.86 107.68V107.66C497.56 107.06 493.65 105.23 490.37 98.78L445.78 0.99C445.72 0.85 445.57 0.75 445.41 0.75H444.22C444.06 0.75 443.94 0.83 443.86 0.97L410.09 70.96C397.33 69.03 384.26 64.86 369.52 60.15C368.87 59.94 368.21 59.73 367.56 59.52C365.67 58.92 363.77 58.31 361.84 57.71V15.39C361.84 11.17 364.12 7.43 367.66 5.85C367.8 5.79 367.9 5.64 367.9 5.49V4.94C367.9 4.72 367.73 4.54 367.5 4.54H346.77C346.55 4.54 346.37 4.71 346.37 4.94V5.49C346.37 5.65 346.47 5.79 346.61 5.85C350.14 7.43 352.43 11.18 352.43 15.39V54.8C347.09 53.2 341.54 51.61 335.66 50.11C298.07 40.49 274.69 53.47 263.25 63.2V15.39C263.25 11.17 265.53 7.43 269.07 5.85C269.21 5.79 269.31 5.64 269.31 5.49V4.94C269.31 4.72 269.14 4.54 268.91 4.54H248.18C247.96 4.54 247.78 4.71 247.78 4.94V5.49C247.78 5.65 247.87 5.79 248.02 5.85C251.55 7.43 253.84 11.18 253.84 15.39V98.12C253.84 102.34 251.56 106.08 248.02 107.66C247.88 107.72 247.78 107.87 247.78 108.02V108.57C247.78 108.79 247.95 108.97 248.18 108.97H268.91C269.13 108.97 269.31 108.8 269.31 108.57V108.02C269.31 107.86 269.21 107.72 269.07 107.66C265.54 106.07 263.25 102.32 263.25 98.12V70.69C266.13 67.71 270.68 63.75 277.02 60.28C292.85 51.61 312.65 49.96 334.28 55.51C340.65 57.14 346.64 58.87 352.43 60.61V98.14C352.43 102.36 350.15 106.1 346.61 107.68C346.47 107.74 346.37 107.89 346.37 108.04V108.6C346.37 108.82 346.55 109 346.77 109H367.5C367.72 109 367.9 108.83 367.9 108.6V108.04C367.9 107.88 367.8 107.74 367.66 107.68C364.12 106.09 361.84 102.35 361.84 98.14V63.54C362.33 63.7 362.83 63.85 363.32 64.01C364.87 64.5 366.4 64.99 367.94 65.47C382.09 69.99 394.9 74.06 407.61 76.15L396.69 98.8C395.85 100.58 394.41 102.73 393.16 104.05C392.1 105.18 390.05 106.73 388.69 107.43L388.22 107.67C388.08 107.73 388 107.88 388 108.03V108.6C388 108.82 388.17 109 388.4 109H408.21C408.43 109 408.61 108.83 408.61 108.6V108.03C408.61 107.87 408.52 107.73 408.39 107.67C407.25 107.15 406.12 106.39 405.09 105.5C402.9 103.57 402.22 100.3 403.44 97.56C404.04 96.21 404.57 95.06 404.57 95.06L408.8 86.49C409.05 85.98 409.37 85.48 409.83 84.84L413.76 77.01C417.34 77.41 420.92 77.63 424.54 77.63C438.61 77.63 451.82 74.4 465.7 67.53L477.35 93.22L480.04 99.05C481.04 101.25 480.77 103.8 479.33 105.56C479.3 105.59 479.27 105.63 479.24 105.66C479.16 105.75 479.09 105.84 479.01 105.91C478.25 106.65 477.39 107.26 476.46 107.69C476.32 107.75 476.24 107.9 476.24 108.05V108.62C476.24 108.84 476.41 109.02 476.64 109.02H498.72C498.94 109.02 499.12 108.85 499.12 108.62V108.05C499.12 107.89 499.02 107.75 498.9 107.69L498.86 107.68ZM416.38 71.72L443.29 18.09L463.39 62.45C446.31 70.93 431.39 73.08 416.38 71.72Z" fill="white"/>
<path d="M86.75 95.97H86.2C86.04 95.97 85.9 96.07 85.84 96.21C84.19 99.87 80.39 103.56 76.3 103.56H15.47V49.14H45.95C50.04 49.14 53.86 52.85 55.49 56.49C55.55 56.63 55.7 56.73 55.85 56.73H56.4C56.62 56.73 56.8 56.56 56.8 56.33V36.52C56.8 36.3 56.63 36.12 56.4 36.12H55.85C55.69 36.12 55.55 36.22 55.49 36.36C53.84 40.02 50.04 43.71 45.95 43.71H15.47V9.96H76.28C80.37 9.96 84.17 13.67 85.82 17.31C85.88 17.45 86.03 17.55 86.18 17.55H86.73C86.84 17.55 86.95 17.5 87.02 17.42C87.1 17.34 87.13 17.23 87.12 17.12L85.96 4.9C85.94 4.69 85.77 4.54 85.56 4.54H0.4C0.18 4.54 0 4.71 0 4.94V5.49C0 5.65 0.1 5.79 0.24 5.85C3.77 7.43 6.06 11.18 6.06 15.39V98.12C6.06 102.34 3.78 106.08 0.24 107.66C0.1 107.72 0 107.87 0 108.02V108.57C0 108.79 0.17 108.97 0.4 108.97H85.58C85.79 108.97 85.96 108.81 85.98 108.61L87.14 96.39C87.14 96.28 87.11 96.17 87.04 96.09C86.96 96.01 86.87 95.96 86.75 95.96V95.97Z" fill="white"/>
<path d="M230.43 4.54L230.41 4.56H209.7C209.48 4.56 209.3 4.73 209.3 4.96V5.51C209.3 5.67 209.39 5.81 209.54 5.87C213.07 7.45 215.36 11.19 215.36 15.41V87.3C208.75 77.95 196.52 64.75 174.98 53.08C150.38 40.15 133.36 26.79 124.41 13.36C124.01 12.77 123.54 12 123.02 11.13C121.77 9.07 120.22 6.52 118.63 4.68C118.55 4.6 118.44 4.54 118.33 4.54H107.65C107.43 4.54 107.25 4.71 107.25 4.94V6.26C107.25 6.47 107.42 6.64 107.63 6.66C107.66 6.66 110.82 6.83 113.27 9.31C114.57 10.63 115.88 12.61 116.77 14.03V98.14C116.77 102.36 114.49 106.1 110.95 107.68C110.81 107.74 110.71 107.89 110.71 108.04V108.59C110.71 108.81 110.88 108.99 111.11 108.99H131.84C132.06 108.99 132.24 108.82 132.24 108.59V108.04C132.24 107.88 132.14 107.74 132 107.68C128.47 106.09 126.18 102.35 126.18 98.14V26.87C135.85 37.38 150.6 47.84 170.06 58.01C211.05 80.07 218.41 107.84 218.63 108.68V108.7C218.68 108.87 218.84 109 219.01 109H224.37C224.59 109 224.77 108.83 224.77 108.6V15.39C224.77 11.17 227.05 7.43 230.59 5.85C230.73 5.79 230.83 5.64 230.83 5.49V4.94C230.83 4.72 230.66 4.54 230.43 4.54Z" fill="white"/>
<path d="M636.07 4.54L636.05 4.56H615.34C615.12 4.56 614.94 4.73 614.94 4.96V5.51C614.94 5.67 615.03 5.81 615.18 5.87C618.71 7.45 621 11.19 621 15.41V87.3C614.39 77.95 602.16 64.75 580.62 53.08C556.02 40.15 539 26.79 530.05 13.36C529.65 12.77 529.18 12 528.66 11.13C527.41 9.07 525.86 6.52 524.27 4.68C524.19 4.6 524.08 4.54 523.97 4.54H513.29C513.07 4.54 512.89 4.71 512.89 4.94V6.26C512.89 6.47 513.06 6.64 513.27 6.66C513.3 6.66 516.46 6.83 518.91 9.31C520.21 10.63 521.52 12.61 522.41 14.03V98.14C522.41 102.36 520.13 106.1 516.59 107.68C516.45 107.74 516.35 107.89 516.35 108.04V108.59C516.35 108.81 516.52 108.99 516.75 108.99H537.48C537.7 108.99 537.88 108.82 537.88 108.59V108.04C537.88 107.88 537.78 107.74 537.64 107.68C534.11 106.09 531.82 102.35 531.82 98.14V26.87C541.49 37.38 556.24 47.84 575.7 58.01C616.69 80.07 624.05 107.84 624.27 108.68V108.7C624.32 108.87 624.48 109 624.66 109H630.02C630.24 109 630.42 108.83 630.42 108.6V15.39C630.42 11.17 632.7 7.43 636.24 5.85C636.38 5.79 636.48 5.64 636.48 5.49V4.94C636.48 4.72 636.31 4.54 636.08 4.54H636.07Z" fill="white"/>
<path d="M749.44 89.39H748.14C747.98 89.39 747.86 89.49 747.79 89.61C746.46 92 744.1 94.51 740.74 97.01C737.36 99.55 732.9 101.75 727.47 103.54C722 105.35 715.76 106.27 708.91 106.27C699.48 106.27 691.29 104.02 684.57 99.6C677.83 95.18 672.68 89.17 669.28 81.77C665.86 74.35 664.11 65.98 664.11 56.9C664.11 47.82 665.85 39.4 669.28 31.89C672.69 24.39 677.84 18.36 684.57 13.92C691.29 9.5 699.48 7.25 708.91 7.25C715.98 7.25 722.4 8.36 727.94 10.55C733.5 12.75 738 15.19 741.32 17.82C744.62 20.43 746.74 22.48 747.63 23.94C747.71 24.05 747.84 24.13 747.96 24.13H749.26C749.48 24.13 749.66 23.96 749.66 23.73V11.67C749.66 11.53 749.6 11.4 749.47 11.34C746.14 9.31 740.55 7.24 732.83 5.16C725.08 3.1 717.87 2.05 711.37 2.05C699.2 2.05 688.61 4.54 679.93 9.44C671.21 14.34 664.54 21.01 660.1 29.27C655.66 37.51 653.41 46.81 653.41 56.93C653.41 67.05 655.66 76.19 660.1 84.43C664.54 92.67 671.21 99.33 679.93 104.19C688.63 109.04 699.2 111.5 711.37 111.5C717.35 111.5 724.51 110.42 732.66 108.32C740.81 106.22 746.53 104.15 749.65 102.22C749.76 102.14 749.84 102.01 749.84 101.89V89.83C749.84 89.61 749.67 89.43 749.44 89.43V89.39Z" fill="white"/>
<path d="M846.13 10.03C850.22 10.03 854.02 13.74 855.67 17.38C855.73 17.52 855.88 17.62 856.03 17.62H856.58C856.69 17.62 856.8 17.57 856.87 17.49C856.95 17.41 856.98 17.3 856.96 17.19L855.8 4.97C855.78 4.76 855.61 4.61 855.4 4.61H770.22C770 4.61 769.82 4.78 769.82 5.01V5.56C769.82 5.72 769.91 5.86 770.06 5.92C773.59 7.5 775.88 11.24 775.88 15.46V98.19C775.88 102.41 773.6 106.15 770.06 107.73C769.92 107.79 769.82 107.94 769.82 108.09V108.64C769.82 108.86 769.99 109.04 770.22 109.04H855.4C855.61 109.04 855.78 108.88 855.8 108.68L856.96 96.46C856.96 96.35 856.93 96.24 856.87 96.16C856.79 96.08 856.7 96.03 856.58 96.03H856.03C855.87 96.03 855.73 96.13 855.67 96.27C854.02 99.93 850.22 103.62 846.13 103.62H785.32V49.2H815.8C819.89 49.2 823.71 52.91 825.34 56.55C825.4 56.69 825.55 56.79 825.7 56.79H826.25C826.47 56.79 826.65 56.62 826.65 56.39V36.58C826.65 36.36 826.48 36.18 826.25 36.18H825.7C825.54 36.18 825.4 36.28 825.34 36.42C823.69 40.08 819.89 43.77 815.8 43.77H785.32V10.03H846.13Z" fill="white"/>
<path d="M904.75 55.44C900.09 54.51 897.47 52.1 895.38 46.97C895.31 46.84 895.15 46.75 895 46.75C894.86 46.75 894.69 46.84 894.62 46.97C892.53 52.1 889.92 54.5 885.25 55.43C885.11 55.5 885 55.66 885 55.82C885 55.98 885.11 56.14 885.25 56.21C889.91 57.14 892.53 59.55 894.62 64.68C894.69 64.81 894.85 64.9 895 64.9C895.14 64.9 895.31 64.82 895.38 64.69C897.47 59.56 900.08 57.16 904.75 56.22C904.89 56.15 905 55.99 905 55.83C905 55.67 904.89 55.51 904.75 55.44Z" fill="white"/>
<path d="M1094.14 67.46C1102.5 74.83 1112.84 78.55 1124.83 78.55C1136.82 78.55 1146.02 75.14 1153.42 68.42C1156.53 65.6 1159.05 62.35 1160.9 58.75C1160.97 58.62 1160.97 58.48 1160.9 58.35C1160.82 58.24 1160.7 58.16 1160.57 58.16H1156.17C1156.04 58.16 1155.93 58.22 1155.85 58.3C1155.61 58.6 1155.36 58.92 1155.09 59.28C1151.31 64.18 1144.31 73.27 1125.1 73.27C1115.99 73.27 1108.43 70.61 1102.61 65.33C1096.8 60.07 1093.53 53.05 1092.9 44.51V41.06C1092.9 40.87 1092.9 40.68 1092.91 40.49V40.38H1164.2C1164.42 40.38 1164.6 40.21 1164.6 39.98V35C1164.6 35 1164.57 34.86 1164.52 34.79C1164.11 25.41 1160.38 17.44 1153.42 11.13C1146.02 4.41 1136.4 1 1124.83 1C1113.26 1 1102.5 4.74 1094.14 12.09C1085.75 19.46 1081.5 28.78 1081.5 39.75V39.97C1081.57 50.86 1085.81 60.1 1094.14 67.42V67.46ZM1102.61 14.21C1108.43 8.95 1116.01 6.27 1125.1 6.27C1134.19 6.27 1140.82 8.88 1145.98 14.04C1151.03 19.11 1153.76 26.04 1154.09 34.64H1092.93C1093.64 26.26 1096.89 19.39 1102.61 14.21Z" fill="white"/>
<path d="M1060.65 104.2C1059.34 102.31 1058.69 100.28 1058.69 98.1L1058.56 81.68V11.88C1058.56 7.68 1061.12 3.94 1065.09 2.34C1065.23 2.28 1065.34 2.13 1065.34 1.98V1.43C1065.34 1.21 1065.17 1.03 1064.94 1.03H1050.9C1050.9 1.03 1050.78 1.03 1050.73 1.08L1049.6 1.65C1049.6 1.65 1049.48 1.75 1049.44 1.81L1000.3 85.41L952.31 3.35L951.12 1.24C951.06 1.11 950.91 1.03 950.77 1.03H933.94C933.72 1.03 933.54 1.2 933.54 1.43V1.98C933.54 2.14 933.63 2.28 933.79 2.34C937.89 3.99 942.05 7.79 942.05 11.88V98.13C942.05 102.22 937.9 106.02 933.79 107.67C933.65 107.73 933.54 107.88 933.54 108.03V108.58C933.54 108.8 933.71 108.98 933.94 108.98H955.6C955.82 108.98 956 108.81 956 108.58V108.03C956 107.87 955.91 107.73 955.75 107.67C951.65 106.02 947.49 102.22 947.49 98.13V13.78L997.68 99.65C997.82 99.89 998.22 99.89 998.36 99.65L1049.07 12.88V81.68L1049.2 98.1C1049.2 99.55 1048.91 100.97 1048.33 102.35C1047.75 103.73 1046.91 104.93 1045.82 105.95C1044.73 106.97 1043.46 107.77 1042 108.35V109H1065.87V108.35C1063.69 107.48 1061.95 106.1 1060.64 104.21L1060.65 104.2Z" fill="white"/>
<path d="M1172.12 90.68C1170.42 93.01 1167.71 95.11 1164 97C1159.22 99.33 1154.76 100.56 1150.62 100.71C1145.2 100.71 1139.63 100.35 1133.89 99.62C1128.15 98.89 1122.84 98.06 1117.96 97.11C1113.07 96.17 1110.58 95.69 1110.47 95.69C1085.28 90.68 1078.07 100.23 1077.33 101.03C1076.59 101.83 1075.84 102.66 1075.1 103.54C1074.36 104.41 1073.77 105.21 1073.35 105.94L1073.99 106.59C1076.96 103.54 1080.04 101.36 1083.23 100.05C1085.25 99.32 1087.21 98.96 1089.13 98.96H1089.77C1092 99.11 1094.18 99.4 1096.3 99.83C1098.74 100.41 1102.41 101.36 1107.29 102.66C1114.09 104.7 1120.14 106.22 1125.45 107.24C1130.97 108.4 1136.92 108.98 1143.29 108.98C1147.96 108.98 1152.42 108 1156.67 106.04C1160.92 104.08 1164.5 101.68 1167.42 98.85C1170.34 96.02 1172.12 93.51 1172.76 91.33L1172.12 90.68Z" fill="white"/>
</svg>
