<svg width="821" height="78" viewBox="0 0 821 78" fill="none" xmlns="http://www.w3.org/2000/svg">
<path fill-rule="evenodd" clip-rule="evenodd" d="M343.983 68.802C346.279 73.3288 349.018 74.6078 349.928 75.0305V75.0416C350.016 75.0861 350.083 75.1862 350.083 75.2974V75.6978C350.083 75.8535 349.961 75.9759 349.806 75.9759H334.356C334.201 75.9759 334.079 75.8535 334.079 75.6978V75.2974C334.079 75.1862 334.134 75.0861 334.234 75.0416C334.889 74.7413 335.487 74.3187 336.02 73.7959C336.076 73.7473 336.127 73.6869 336.18 73.6233C336.2 73.5996 336.221 73.5754 336.242 73.5512C337.251 72.3167 337.439 70.526 336.741 68.98L334.855 64.887L326.703 46.8579C316.988 51.6738 307.749 53.9428 297.9 53.9428C295.372 53.9428 292.865 53.787 290.359 53.509L287.608 59.0034C287.286 59.4483 287.065 59.8042 286.887 60.1601L283.926 66.1772C283.926 66.1772 283.56 66.9891 283.139 67.9345C282.285 69.8587 282.761 72.1498 284.292 73.5067C285.013 74.1296 285.8 74.6635 286.599 75.0305C286.688 75.075 286.754 75.1751 286.754 75.2863V75.6867C286.754 75.8424 286.632 75.9648 286.477 75.9648H272.613C272.458 75.9648 272.336 75.8424 272.336 75.6867V75.2863C272.336 75.1751 272.391 75.075 272.491 75.0305L272.824 74.8636C273.778 74.3743 275.209 73.2843 275.952 72.4946C276.828 71.5715 277.837 70.0589 278.425 68.8132L286.066 52.9195C277.172 51.4514 268.21 48.593 258.306 45.4231C257.229 45.0857 256.152 44.7418 255.071 44.3964C254.726 44.2864 254.381 44.1763 254.036 44.0662V68.346C254.036 71.3045 255.633 73.9294 258.106 75.0416C258.206 75.0861 258.273 75.1862 258.273 75.2974V75.6867C258.273 75.8424 258.151 75.9648 257.995 75.9648H243.489C243.333 75.9648 243.211 75.8424 243.211 75.6867V75.2974C243.211 75.1862 243.278 75.0861 243.378 75.0416C245.851 73.9294 247.448 71.3045 247.448 68.346V42.0086C243.4 40.7852 239.208 39.5729 234.749 38.4273C219.61 34.5345 205.757 35.6912 194.678 41.7751C190.241 44.2108 187.058 46.9914 185.04 49.0824V68.3349C185.04 71.2823 186.637 73.9183 189.11 75.0305C189.21 75.075 189.276 75.1751 189.276 75.2863V75.6756C189.276 75.8313 189.154 75.9536 188.999 75.9536H174.492C174.337 75.9536 174.215 75.8313 174.215 75.6756V75.2863C174.215 75.1751 174.282 75.075 174.381 75.0305C176.855 73.9183 178.452 71.2934 178.452 68.3349V10.2769C178.452 7.31842 176.855 4.69358 174.381 3.58135C174.282 3.53687 174.215 3.43677 174.215 3.32554V2.93627C174.215 2.78055 174.337 2.65821 174.492 2.65821H188.999C189.154 2.65821 189.276 2.78055 189.276 2.93627V3.32554C189.276 3.43677 189.21 3.53687 189.11 3.58135C186.637 4.69358 185.04 7.31842 185.04 10.2769V43.8327C193.047 37.0036 209.406 27.8945 235.714 34.6457C239.829 35.7023 243.71 36.8145 247.448 37.9379V10.2769C247.448 7.31842 245.851 4.69358 243.378 3.58135C243.278 3.53687 243.211 3.43677 243.211 3.32554V2.93627C243.211 2.78055 243.333 2.65821 243.489 2.65821H257.995C258.151 2.65821 258.273 2.78055 258.273 2.93627V3.32554C258.273 3.43677 258.206 3.53687 258.106 3.58135C255.633 4.69358 254.036 7.31842 254.036 10.2769V39.9733C255.387 40.3944 256.719 40.8217 258.042 41.246C258.5 41.3932 258.958 41.54 259.415 41.6861C269.73 44.9894 278.88 47.9145 287.808 49.2714L311.442 0.155711C311.498 0.0556111 311.587 0 311.698 0H312.529C312.64 0 312.74 0.0667333 312.784 0.166833L343.983 68.802ZM292.211 49.8053C302.714 50.7618 313.15 49.2492 325.106 43.2988L311.043 12.1677L292.211 49.8053ZM820.891 63.3188L820.303 62.885C820.193 62.8072 820.037 62.8183 819.938 62.9184C818.407 64.4755 815.923 65.888 812.551 67.1337C809.257 68.346 805.353 69.6362 800.362 69.5583C788.584 69.3693 782.007 68.068 775.652 66.8L775.635 66.7968C769.608 65.5968 763.92 64.4644 754.379 64.4644C749.666 64.4644 745.396 64.976 741.647 65.9992H741.614V7.80778C741.614 4.8604 743.41 2.23555 746.183 1.11221C746.283 1.06772 746.361 0.96762 746.361 0.856398V0.46712C746.361 0.311409 746.239 0.189065 746.083 0.189065H736.257C736.257 0.189065 736.168 0.189065 736.135 0.222432L735.347 0.622831C735.347 0.622831 735.259 0.689565 735.236 0.734054L700.844 59.4038L667.26 1.82403L666.429 0.344776C666.384 0.255798 666.284 0.200187 666.185 0.200187H654.406C654.251 0.200187 654.129 0.322532 654.129 0.478243V0.86752C654.129 0.978742 654.195 1.07884 654.306 1.12333C657.179 2.28004 660.085 4.94937 660.085 7.81891V68.346C660.085 71.2155 657.179 73.8849 654.306 75.0416C654.207 75.0861 654.129 75.1862 654.129 75.2974V75.6867C654.129 75.8424 654.251 75.9647 654.406 75.9647H669.567C669.723 75.9647 669.845 75.8424 669.845 75.6867V75.2974C669.845 75.1862 669.778 75.0861 669.667 75.0416C666.795 73.8849 663.889 71.2155 663.889 68.346V9.14245L699.014 69.4026C699.113 69.5695 699.391 69.5695 699.491 69.4026L734.981 8.50848V68.6908C732.741 69.9587 730.867 71.4825 729.403 73.2398C729.347 73.3065 729.325 73.3844 729.347 73.4734C729.358 73.5512 729.414 73.6291 729.48 73.6624L730.478 74.2297C730.578 74.2853 730.689 74.2742 730.778 74.2074C733.074 72.4612 739.34 69.1357 746.671 69.0356C754.546 68.9244 761.078 70.6594 767.378 72.3389C770.805 73.2509 774.043 74.1073 777.337 74.6189C782.173 75.3753 787.674 75.7645 793.652 75.7645C797.966 75.7645 802.126 75.0861 806.041 73.7403C809.945 72.4056 813.283 70.7707 815.956 68.891C818.64 66.9891 820.326 65.2318 820.969 63.6636C821.013 63.5412 820.969 63.4077 820.88 63.3299L820.891 63.3188ZM760.8 46.8134C766.656 51.9852 773.887 54.599 782.283 54.599C790.679 54.599 797.112 52.2077 802.291 47.4919C804.465 45.5121 806.228 43.2321 807.526 40.7073C807.57 40.6183 807.57 40.5182 807.526 40.4293C807.471 40.3514 807.382 40.2958 807.293 40.2958H804.21C804.121 40.2958 804.043 40.3403 803.988 40.3959L803.921 40.4811L803.92 40.4821L803.916 40.4866L803.916 40.4874C803.771 40.6716 803.617 40.8663 803.456 41.0855L803.455 41.0864C800.815 44.5234 795.913 50.9064 782.472 50.9064C776.094 50.9064 770.804 49.0378 766.734 45.3341C762.663 41.6416 760.379 36.7144 759.935 30.7196V28.2949C759.935 28.1614 759.935 28.028 759.946 27.8945V27.8167H809.833C809.988 27.8167 810.11 27.6943 810.11 27.5386V24.0462C810.11 24.0462 810.088 23.9461 810.055 23.9016C809.766 17.3173 807.16 11.7228 802.291 7.29616C797.112 2.58034 790.379 0.189065 782.283 0.189065C774.187 0.189065 766.656 2.81391 760.8 7.97462C754.933 13.1464 751.961 19.6863 751.961 27.3829V27.5386C752.005 35.1796 754.977 41.6638 760.8 46.8023V46.8134ZM759.957 23.7793C760.456 17.8956 762.73 13.0797 766.734 9.44275C770.804 5.75017 776.106 3.87052 782.472 3.87052C788.838 3.87052 793.474 5.70569 797.078 9.32041C800.616 12.8795 802.524 17.7399 802.757 23.7793H759.957ZM633.432 38.7147L633.975 38.9807C634.089 39.0314 634.152 39.1454 634.152 39.2594C634.152 39.3734 634.076 39.4874 633.975 39.5381L633.432 39.8168C631.019 41.0075 629.036 42.8064 627.722 44.9979L627.419 45.4919C627.368 45.5806 627.255 45.6439 627.154 45.6439C627.053 45.6439 626.939 45.5932 626.888 45.4919L626.585 44.9979C625.259 42.8064 623.288 41.0202 620.876 39.8168L620.332 39.5381C620.219 39.4874 620.156 39.3734 620.156 39.2594C620.156 39.1454 620.231 39.0314 620.332 38.9807L620.876 38.7147C623.288 37.5239 625.272 35.7251 626.585 33.5336L626.888 33.0396C626.939 32.9509 627.053 32.8875 627.154 32.8875C627.255 32.8875 627.368 32.9382 627.419 33.0396L627.722 33.5336C629.049 35.7251 631.019 37.5113 633.432 38.7147ZM54.2007 6.462C57.0621 6.462 59.724 9.0646 60.8774 11.6227C60.9218 11.7228 61.0216 11.7895 61.1325 11.7895H61.5207C61.5983 11.7895 61.6759 11.7562 61.7203 11.7006C61.7758 11.645 61.798 11.5671 61.7869 11.4892L60.9772 2.91402C60.9661 2.76943 60.8441 2.65821 60.7 2.65821H1.09758C0.942312 2.65821 0.820312 2.78055 0.820312 2.93626V3.32554C0.820312 3.43676 0.886858 3.53686 0.986676 3.58135C3.45994 4.69357 5.05703 7.31841 5.05703 10.2769V68.3349C5.05703 71.2934 3.45994 73.9183 0.986676 75.0305C0.886858 75.075 0.820312 75.1751 0.820312 75.2863V75.6756C0.820312 75.8313 0.942312 75.9536 1.09758 75.9536H60.711C60.8552 75.9536 60.9772 75.8424 60.9883 75.6978L61.7979 67.1226C61.7979 67.0447 61.7758 66.9669 61.7314 66.9113C61.6759 66.8556 61.6094 66.8223 61.5318 66.8223H61.1436C61.0327 66.8223 60.9329 66.889 60.8885 66.9891C59.735 69.5583 57.0732 72.1498 54.2118 72.1498H11.645V33.9561H32.9728C35.8342 33.9561 38.5071 36.5587 39.6495 39.1168C39.6938 39.2169 39.7937 39.2837 39.9046 39.2837H40.2927C40.448 39.2837 40.57 39.1613 40.57 39.0056V25.1028C40.57 24.9471 40.448 24.8248 40.2927 24.8248H39.9046C39.7937 24.8248 39.6938 24.8915 39.6495 24.9916C38.496 27.5608 35.8342 30.1523 32.9728 30.1523H11.645V6.462H54.2007ZM147.575 2.66933H162.071L162.082 2.65821C162.237 2.65821 162.359 2.78055 162.359 2.93626V3.32554C162.359 3.43676 162.293 3.53686 162.193 3.58135C159.72 4.69357 158.123 7.31841 158.123 10.2769V75.6867C158.123 75.8424 158.001 75.9648 157.845 75.9648H154.097C153.975 75.9648 153.864 75.8758 153.83 75.7534L153.827 75.7414C153.672 75.1557 148.525 55.6647 119.837 40.1846C106.217 33.0441 95.8916 25.7034 89.1262 18.3294V68.3349C89.1262 71.2934 90.7233 73.9183 93.1965 75.0305C93.2963 75.075 93.3629 75.1751 93.3629 75.2863V75.6756C93.3629 75.8313 93.2409 75.9536 93.0856 75.9536H78.5787C78.4235 75.9536 78.3015 75.8313 78.3015 75.6756V75.2863C78.3015 75.1751 78.368 75.075 78.4678 75.0305C80.9411 73.9183 82.5382 71.2934 82.5382 68.3349V9.30929C81.9171 8.30829 80.9966 6.91801 80.0871 5.99487C78.368 4.2598 76.1609 4.13746 76.1388 4.13746C75.9946 4.12634 75.8726 4.00399 75.8726 3.8594V2.93626C75.8726 2.78055 75.9946 2.65821 76.1498 2.65821H83.6251C83.7027 2.65821 83.7804 2.70269 83.8358 2.7583C84.9449 4.04848 86.0318 5.83916 86.908 7.28505C87.274 7.89677 87.6067 8.44176 87.884 8.85328C94.1503 18.2738 106.062 27.6498 123.275 36.7256C138.347 44.9115 146.91 54.1763 151.535 60.7384V10.288C151.535 7.32954 149.937 4.70469 147.464 3.59247C147.364 3.54798 147.298 3.44788 147.298 3.33666V2.94738C147.298 2.79167 147.42 2.66933 147.575 2.66933ZM445.942 2.66933H431.446C431.29 2.66933 431.168 2.79167 431.168 2.94738V3.33666C431.168 3.44788 431.235 3.54798 431.335 3.59247C433.808 4.70469 435.405 7.32954 435.405 10.288V60.7384C430.78 54.1763 422.218 44.9115 407.146 36.7256C389.933 27.6498 378.021 18.2738 371.755 8.85328C371.477 8.44176 371.145 7.89677 370.779 7.28505C369.902 5.83916 368.816 4.04848 367.706 2.7583C367.651 2.70269 367.573 2.65821 367.496 2.65821H360.021C359.865 2.65821 359.743 2.78055 359.743 2.93626V3.8594C359.743 4.00399 359.865 4.12634 360.009 4.13746C360.032 4.13746 362.239 4.2598 363.958 5.99487C364.867 6.91801 365.788 8.30829 366.409 9.30929V68.3349C366.409 71.2934 364.812 73.9183 362.339 75.0305C362.239 75.075 362.172 75.1751 362.172 75.2863V75.6756C362.172 75.8313 362.294 75.9536 362.449 75.9536H376.956C377.112 75.9536 377.234 75.8313 377.234 75.6756V75.2863C377.234 75.1751 377.167 75.075 377.067 75.0305C374.594 73.9183 372.997 71.2934 372.997 68.3349V18.3294C379.762 25.7034 390.088 33.0441 403.707 40.1846C432.396 55.6647 437.543 75.1557 437.698 75.7414L437.701 75.7534C437.734 75.8758 437.845 75.9648 437.967 75.9648H441.716C441.871 75.9648 441.993 75.8424 441.993 75.6867V10.2769C441.993 7.31841 443.59 4.69357 446.064 3.58135C446.163 3.53686 446.23 3.43676 446.23 3.32554V2.93626C446.23 2.78055 446.108 2.65821 445.953 2.65821L445.942 2.66933ZM524.376 62.2066H525.285V62.2177C525.441 62.2177 525.563 62.34 525.563 62.4957V70.9597C525.563 71.0487 525.507 71.1377 525.43 71.1933C523.245 72.5502 519.241 73.9961 513.54 75.4754C507.839 76.9546 502.826 77.7109 498.645 77.7109C490.127 77.7109 482.73 75.987 476.641 72.5836C470.541 69.1691 465.871 64.4977 462.766 58.7142C459.661 52.9306 458.086 46.5131 458.086 39.4171C458.086 32.3212 459.661 25.7924 462.766 20.0089C465.871 14.2142 470.541 9.53174 476.641 6.09497C482.719 2.65821 490.127 0.912019 498.645 0.912019C503.192 0.912019 508.239 1.64609 513.662 3.09197C519.063 4.54898 522.978 6.00599 525.307 7.42964C525.396 7.47413 525.441 7.56311 525.441 7.66321V14.3143V14.3588V16.1272C525.441 16.2829 525.319 16.4053 525.163 16.4053H524.254C524.165 16.4053 524.076 16.3497 524.021 16.2718C523.4 15.2486 521.914 13.8138 519.607 11.9786C517.289 10.1323 514.139 8.41952 510.246 6.87353C506.364 5.33866 501.872 4.56011 496.926 4.56011C490.327 4.56011 484.593 6.13946 479.89 9.24256C475.177 12.3568 471.572 16.5943 469.188 21.8552C466.792 27.1271 465.572 33.033 465.572 39.406C465.572 45.779 466.792 51.6516 469.188 56.8568C471.572 62.0509 475.177 66.2662 479.89 69.3693C484.593 72.4724 490.327 74.0517 496.926 74.0517C501.717 74.0517 506.087 73.4066 509.913 72.1387C513.706 70.8819 516.834 69.3359 519.196 67.5564C521.548 65.799 523.2 64.0417 524.132 62.3623C524.176 62.2733 524.265 62.2066 524.376 62.2066ZM592.951 6.51432C595.812 6.51432 598.474 9.11692 599.627 11.675C599.672 11.7751 599.771 11.8419 599.882 11.8419H600.27C600.348 11.8419 600.426 11.8085 600.47 11.7529C600.526 11.6973 600.548 11.6194 600.537 11.5416L599.727 2.96633C599.716 2.82174 599.594 2.71052 599.45 2.71052H539.836C539.681 2.71052 539.559 2.83287 539.559 2.98858V3.37786C539.559 3.48908 539.626 3.58918 539.725 3.63367C542.199 4.74589 543.796 7.37073 543.796 10.3292V68.3872C543.796 71.3457 542.199 73.9706 539.725 75.0828C539.626 75.1273 539.559 75.2274 539.559 75.3386V75.7279C539.559 75.8836 539.681 76.0059 539.836 76.0059H599.45C599.594 76.0059 599.716 75.8947 599.727 75.7501L600.537 67.1749C600.537 67.097 600.514 67.0192 600.47 66.9636C600.415 66.908 600.348 66.8746 600.27 66.8746H599.882C599.771 66.8746 599.672 66.9413 599.627 67.0414C598.474 69.6107 595.812 72.2021 592.951 72.2021H550.395V34.0084H571.723C574.584 34.0084 577.257 36.611 578.399 39.1691C578.444 39.2692 578.543 39.336 578.654 39.336H579.042C579.198 39.336 579.32 39.2136 579.32 39.0579V25.1552C579.32 24.9994 579.198 24.8771 579.042 24.8771H578.654C578.543 24.8771 578.444 24.9438 578.399 25.0439C577.246 27.6132 574.584 30.2046 571.723 30.2046H550.395V6.51432H592.951Z" fill="white"/>
</svg>
