<svg width="1920" height="951" viewBox="0 0 1920 951" fill="none" xmlns="http://www.w3.org/2000/svg">
<path d="M1978.03 485.927V243.564C1978.03 176.473 1924.47 121.835 1858.39 121.191C1857.76 54.2498 1803.81 0 1737.59 0C1676.73 0 1626.23 45.8304 1617.97 105.208C1609.68 45.8304 1559.2 0 1498.33 0C1437.46 0 1386.97 45.8304 1378.7 105.208C1370.43 45.8304 1319.94 0 1259.07 0C1198.2 0 1147.72 45.8304 1139.45 105.208C1139.38 104.731 1139.33 104.255 1139.26 103.778C1130.37 45.089 1080.21 0 1019.83 0C959.455 0 909.278 45.089 900.403 103.778C900.332 104.255 900.271 104.731 900.209 105.208C900.138 104.731 900.085 104.255 900.015 103.778C891.123 45.089 840.954 0 780.578 0C720.203 0 670.025 45.089 661.151 103.778C661.08 104.255 661.018 104.731 660.957 105.208C652.682 45.8304 602.187 0 541.326 0C480.465 0 429.97 45.8304 421.704 105.208C413.43 45.8304 362.934 0 302.074 0C241.213 0 190.718 45.8304 182.452 105.208C174.177 45.8304 123.691 0 62.8215 0C-3.7997 0 -58 54.9029 -58 122.391V364.754C-58 426.409 -12.7625 477.552 45.8574 485.936C-12.7625 494.312 -58 545.455 -58 607.109V849.473C-58 911.127 -12.7625 962.27 45.8574 970.655C-12.7625 979.03 -58 1030.17 -58 1091.83V1334.19C-58 1401.28 -4.43488 1455.92 61.6394 1456.56C62.2745 1523.51 116.219 1577.75 182.443 1577.75C243.313 1577.75 293.799 1531.92 302.065 1472.55C310.34 1531.92 360.826 1577.75 421.687 1577.75C482.547 1577.75 533.042 1531.92 541.308 1472.55C549.583 1531.92 600.07 1577.75 660.93 1577.75C721.791 1577.75 772.286 1531.92 780.552 1472.55C780.622 1473.02 780.675 1473.5 780.746 1473.98C789.621 1532.67 839.798 1577.75 900.174 1577.75C960.549 1577.75 1010.73 1532.67 1019.6 1473.98C1019.67 1473.5 1019.73 1473.02 1019.8 1472.55C1019.87 1473.02 1019.92 1473.5 1019.99 1473.98C1028.86 1532.67 1079.04 1577.75 1139.42 1577.75C1199.79 1577.75 1249.97 1532.67 1258.84 1473.98C1258.92 1473.5 1258.98 1473.02 1259.04 1472.55C1267.31 1531.92 1317.8 1577.75 1378.66 1577.75C1439.52 1577.75 1490.02 1531.92 1498.28 1472.55C1506.56 1531.92 1557.04 1577.75 1617.9 1577.75C1678.76 1577.75 1729.26 1531.92 1737.53 1472.55C1745.8 1531.92 1796.29 1577.75 1857.15 1577.75C1923.77 1577.75 1977.97 1522.85 1977.97 1455.36V1213C1977.97 1151.35 1932.73 1100.2 1874.11 1091.82C1932.73 1083.44 1977.97 1032.29 1977.97 970.637V728.273C1977.97 666.619 1932.73 615.476 1874.11 607.092C1932.73 598.716 1977.97 547.564 1977.97 485.91L1978.03 485.927ZM1619.16 1334.18V1093.05C1683.91 1093.71 1736.39 1147.26 1736.39 1213.01V1454.14C1671.64 1453.48 1619.16 1399.93 1619.16 1334.18ZM1379.9 1334.18V1093.05C1444.66 1093.71 1497.14 1147.26 1497.14 1213.01V1454.14C1432.38 1453.48 1379.9 1399.93 1379.9 1334.18ZM1256.52 1473.61C1256.37 1474.59 1256.21 1475.58 1256.03 1476.57C1246.12 1532.64 1197.61 1575.33 1139.45 1575.33C1081.29 1575.33 1032.79 1532.64 1022.87 1476.57C1022.7 1475.59 1022.54 1474.6 1022.39 1473.61C1021.79 1469.63 1021.38 1465.61 1021.18 1461.52C1021.1 1459.87 1021.06 1458.22 1021.04 1456.56C1080.88 1455.96 1130.44 1411.09 1139.26 1352.8C1139.33 1352.32 1139.39 1351.84 1139.45 1351.37C1147.67 1410.35 1197.54 1455.96 1257.87 1456.56C1257.85 1458.21 1257.81 1459.87 1257.72 1461.52C1257.52 1465.61 1257.12 1469.63 1256.52 1473.61ZM1017.26 1473.61C1017.11 1474.59 1016.95 1475.58 1016.78 1476.57C1006.86 1532.64 958.361 1575.33 900.2 1575.33C842.039 1575.33 793.537 1532.64 783.622 1476.57C783.445 1475.59 783.287 1474.6 783.137 1473.61C782.537 1469.63 782.131 1465.61 781.928 1461.52C781.849 1459.87 781.805 1458.22 781.787 1456.56C841.624 1455.96 891.184 1411.09 900.006 1352.8C900.077 1352.32 900.138 1351.84 900.2 1351.37C900.271 1351.84 900.324 1352.32 900.394 1352.8C909.216 1411.09 958.776 1455.96 1018.61 1456.56C1018.6 1458.21 1018.56 1459.87 1018.47 1461.52C1018.27 1465.61 1017.86 1469.63 1017.26 1473.61ZM422.895 1334.18V1093.05C487.646 1093.71 540.126 1147.26 540.126 1213.01V1454.14C475.375 1453.48 422.895 1399.93 422.895 1334.18ZM183.643 1334.18V1093.05C248.394 1093.71 300.874 1147.26 300.874 1213.01V1454.14C236.123 1453.48 183.643 1399.93 183.643 1334.18ZM300.874 243.573V484.709C236.123 484.056 183.643 430.504 183.643 364.754V123.618C248.394 124.271 300.874 177.823 300.874 243.573ZM540.126 243.573V484.709C475.375 484.056 422.895 430.504 422.895 364.754V123.618C487.646 124.271 540.126 177.823 540.126 243.573ZM663.515 104.149C663.665 103.16 663.824 102.172 664 101.183C673.916 45.1155 722.417 2.42699 780.578 2.42699C838.74 2.42699 887.241 45.1155 897.157 101.183C897.333 102.163 897.492 103.151 897.642 104.149C898.242 108.12 898.647 112.145 898.85 116.231C898.93 117.881 898.974 119.531 898.991 121.199C839.154 121.8 789.594 166.668 780.772 224.96C780.702 225.436 780.64 225.913 780.578 226.39C772.365 167.4 722.488 121.8 662.165 121.199C662.183 119.54 662.218 117.881 662.306 116.231C662.509 112.145 662.915 108.12 663.515 104.149ZM902.767 104.149C902.917 103.16 903.076 102.172 903.252 101.183C913.168 45.1155 961.669 2.42699 1019.83 2.42699C1077.99 2.42699 1126.49 45.1155 1136.41 101.183C1136.59 102.163 1136.74 103.151 1136.89 104.149C1137.49 108.12 1137.9 112.145 1138.1 116.231C1138.18 117.881 1138.23 119.531 1138.24 121.199C1078.41 121.8 1028.85 166.668 1020.02 224.96C1019.95 225.436 1019.89 225.913 1019.83 226.39C1019.76 225.913 1019.71 225.436 1019.64 224.96C1010.81 166.668 961.255 121.8 901.417 121.199C901.435 119.54 901.47 117.881 901.559 116.231C901.761 112.145 902.167 108.12 902.767 104.149ZM1497.14 243.573V484.709C1432.38 484.056 1379.9 430.504 1379.9 364.754V123.618C1444.66 124.271 1497.14 177.823 1497.14 243.573ZM1736.39 243.573V484.709C1671.64 484.056 1619.16 430.504 1619.16 364.754V123.618C1683.91 124.271 1736.39 177.823 1736.39 243.573ZM1258.88 1194.4C1250.85 1141.3 1209.02 1099.35 1156.42 1091.83C1209.02 1084.31 1250.85 1042.35 1258.88 989.259C1258.95 988.782 1259.01 988.305 1259.07 987.829C1266.56 1041.59 1308.66 1084.24 1361.74 1091.83C1308.67 1099.42 1266.56 1142.06 1259.07 1195.83C1259 1195.35 1258.95 1194.87 1258.88 1194.4ZM661.151 383.367C669.178 436.461 711.011 478.417 763.614 485.936C711.011 493.455 669.178 535.411 661.151 588.505C661.08 588.982 661.018 589.458 660.957 589.935C653.467 536.171 611.37 493.526 558.29 485.936C611.361 478.346 653.467 435.702 660.957 381.938C661.027 382.414 661.08 382.891 661.151 383.367ZM1617.96 1074.65C1610.47 1020.89 1568.37 978.244 1515.29 970.655C1568.36 963.065 1610.47 920.42 1617.96 866.656C1625.45 920.42 1667.54 963.065 1720.62 970.655C1667.55 978.244 1625.45 1020.89 1617.96 1074.65ZM1736.37 971.881C1735.72 1037.06 1683.51 1089.95 1619.17 1090.61C1619.82 1025.43 1672.02 972.543 1736.37 971.881ZM1019.83 1195.84C1019.76 1195.36 1019.71 1194.88 1019.64 1194.41C1011.61 1141.31 969.776 1099.36 917.173 1091.84C969.776 1084.32 1011.61 1042.36 1019.64 989.267C1019.71 988.791 1019.77 988.314 1019.83 987.838C1019.9 988.314 1019.95 988.791 1020.02 989.267C1028.05 1042.36 1069.88 1084.32 1122.49 1091.84C1069.88 1099.36 1028.05 1141.31 1020.02 1194.41C1019.95 1194.88 1019.89 1195.36 1019.83 1195.84ZM183.643 608.336C248.394 608.989 300.874 662.542 300.874 728.291V969.419C236.123 968.766 183.643 915.213 183.643 849.464V608.327V608.336ZM900.2 381.929C900.271 382.405 900.324 382.882 900.394 383.358C908.422 436.452 950.254 478.408 1002.86 485.927C950.254 493.447 908.422 535.403 900.394 588.496C900.324 588.973 900.262 589.45 900.2 589.926C900.129 589.45 900.077 588.973 900.006 588.496C891.978 535.403 850.146 493.447 797.542 485.927C850.146 478.408 891.978 436.452 900.006 383.358C900.077 382.882 900.138 382.405 900.2 381.929ZM900.006 1073.21C891.978 1020.12 850.146 978.165 797.542 970.646C850.146 963.126 891.978 921.17 900.006 868.077C900.077 867.6 900.138 867.124 900.2 866.647C900.271 867.124 900.324 867.6 900.394 868.077C908.422 921.17 950.254 963.126 1002.86 970.646C950.254 978.165 908.422 1020.12 900.394 1073.21C900.324 1073.69 900.262 1074.17 900.2 1074.64C900.129 1074.17 900.077 1073.69 900.006 1073.21ZM420.505 849.473C420.505 915.222 368.025 968.775 303.273 969.428V728.3C303.273 662.55 355.754 608.998 420.505 608.345V849.482V849.473ZM422.895 608.336C487.646 608.989 540.126 662.542 540.126 728.291V969.419C475.375 968.766 422.895 915.213 422.895 849.464V608.327V608.336ZM659.757 849.473C659.757 915.222 607.277 968.775 542.526 969.428V728.3C542.526 662.55 595.006 608.998 659.757 608.345V849.482V849.473ZM1020.02 504.549C1028.05 557.643 1069.88 599.599 1122.49 607.118C1069.88 614.637 1028.05 656.593 1020.02 709.687C1019.95 710.164 1019.89 710.64 1019.83 711.117C1019.76 710.64 1019.71 710.164 1019.64 709.687C1011.61 656.593 969.776 614.637 917.173 607.118C969.776 599.599 1011.61 557.643 1019.64 504.549C1019.71 504.072 1019.77 503.596 1019.83 503.119C1019.9 503.596 1019.95 504.072 1020.02 504.549ZM1257.88 969.428C1193.13 968.775 1140.65 915.222 1140.65 849.473V608.336C1198.28 608.918 1246.19 651.395 1256.03 707.083C1256.21 708.063 1256.37 709.052 1256.52 710.049C1257.12 714.02 1257.52 718.045 1257.72 722.131C1257.83 724.169 1257.88 726.226 1257.88 728.291V969.419V969.428ZM898.85 855.642C898.647 859.728 898.242 863.752 897.642 867.724C897.492 868.712 897.333 869.701 897.157 870.689C887.312 926.377 839.401 968.854 781.778 969.437V728.309C781.778 726.243 781.831 724.187 781.937 722.148C782.14 718.062 782.546 714.038 783.145 710.067C783.295 709.078 783.454 708.09 783.631 707.101C793.476 651.413 841.386 608.936 899.009 608.354V849.49C899.009 851.556 898.956 853.612 898.85 855.651V855.642ZM901.4 608.345C959.023 608.927 1006.93 651.404 1016.78 707.092C1016.95 708.072 1017.11 709.06 1017.26 710.058C1017.86 714.029 1018.27 718.053 1018.47 722.14C1018.58 724.178 1018.63 726.235 1018.63 728.3V969.428C961.008 968.845 913.097 926.369 903.252 870.68C903.076 869.701 902.917 868.712 902.767 867.715C902.167 863.743 901.761 859.719 901.559 855.633C901.453 853.594 901.4 851.538 901.4 849.473V608.336V608.345ZM1138.1 855.642C1137.9 859.728 1137.49 863.752 1136.89 867.724C1136.74 868.712 1136.59 869.701 1136.41 870.689C1126.56 926.377 1078.65 968.854 1021.03 969.437V728.309C1021.03 726.243 1021.08 724.187 1021.19 722.148C1021.39 718.062 1021.8 714.038 1022.4 710.067C1022.55 709.078 1022.71 708.09 1022.88 707.101C1032.73 651.413 1080.64 608.936 1138.26 608.354V849.49C1138.26 851.556 1138.21 853.612 1138.1 855.651V855.642ZM902.767 588.876C902.917 587.887 903.076 586.899 903.252 585.911C913.097 530.231 960.999 487.754 1018.61 487.163C1018.6 488.813 1018.56 490.464 1018.47 492.096C1018.27 496.183 1017.86 500.207 1017.26 504.178C1017.11 505.167 1016.95 506.155 1016.78 507.144C1006.93 562.823 959.032 605.3 901.417 605.891C901.435 604.241 901.47 602.591 901.559 600.958C901.761 596.872 902.167 592.847 902.767 588.876ZM783.631 507.153C783.454 506.173 783.295 505.184 783.145 504.187C782.546 500.216 782.14 496.191 781.937 492.105C781.857 490.472 781.813 488.822 781.796 487.172C839.419 487.763 887.312 530.231 897.157 585.919C897.333 586.899 897.492 587.887 897.642 588.885C898.242 592.856 898.647 596.881 898.85 600.967C898.93 602.599 898.974 604.25 898.991 605.9C841.368 605.309 793.476 562.841 783.631 507.153ZM780.781 504.558C788.809 557.652 830.641 599.608 883.245 607.127C830.641 614.646 788.809 656.602 780.781 709.696C780.711 710.172 780.649 710.649 780.587 711.126C773.098 657.361 731.001 614.717 677.921 607.127C730.992 599.537 773.098 556.893 780.587 503.128C780.658 503.605 780.711 504.081 780.781 504.558ZM662.156 608.354C726.907 609.007 779.387 662.559 779.387 728.309V969.437C721.764 968.854 673.854 926.377 664.009 870.689C663.832 869.709 663.674 868.721 663.524 867.724C662.924 863.752 662.518 859.728 662.315 855.642C662.209 853.603 662.156 851.547 662.156 849.482V608.345V608.354ZM1017.27 988.914C1017.12 989.903 1016.96 990.891 1016.79 991.88C1006.94 1047.56 959.04 1090.04 901.426 1090.63C901.444 1088.98 901.479 1087.33 901.567 1085.69C901.77 1081.61 902.176 1077.58 902.776 1073.61C902.926 1072.62 903.085 1071.64 903.261 1070.65C913.106 1014.97 961.008 972.49 1018.62 971.899C1018.6 973.549 1018.57 975.2 1018.48 976.832C1018.28 980.918 1017.87 984.943 1017.27 988.914ZM1136.41 1070.64C1136.59 1071.62 1136.74 1072.61 1136.89 1073.6C1137.49 1077.57 1137.9 1081.6 1138.1 1085.69C1138.18 1087.32 1138.23 1088.97 1138.24 1090.62C1080.62 1090.03 1032.73 1047.55 1022.88 991.871C1022.71 990.891 1022.55 989.903 1022.4 988.906C1021.8 984.934 1021.39 980.91 1021.19 976.823C1021.11 975.191 1021.07 973.54 1021.05 971.89C1078.67 972.481 1126.56 1014.96 1136.41 1070.64ZM1139.26 1073.23C1131.23 1020.14 1089.4 978.183 1036.79 970.663C1089.4 963.144 1131.23 921.188 1139.26 868.094C1139.33 867.618 1139.39 867.141 1139.45 866.665C1146.94 920.429 1189.04 963.073 1242.12 970.663C1189.05 978.253 1146.94 1020.9 1139.45 1074.66C1139.38 1074.19 1139.33 1073.71 1139.26 1073.23ZM1379.9 608.354C1444.66 609.007 1497.14 662.559 1497.14 728.309V969.437C1432.38 968.784 1379.9 915.231 1379.9 849.482V608.345V608.354ZM1601 607.127C1547.93 614.717 1505.82 657.361 1498.34 711.126C1490.85 657.361 1448.75 614.717 1395.67 607.127C1448.74 599.537 1490.85 556.893 1498.34 503.128C1505.82 556.893 1547.92 599.537 1601 607.127ZM1499.55 487.172C1563.9 487.834 1616.1 540.716 1616.76 605.9C1552.41 605.238 1500.21 552.356 1499.55 487.172ZM1616.77 608.354V849.49C1616.77 915.24 1564.29 968.792 1499.53 969.445V728.317C1499.53 662.568 1552.01 609.016 1616.77 608.362V608.354ZM1379.92 605.9C1380.57 540.724 1432.78 487.834 1497.13 487.172C1496.47 552.347 1444.27 605.238 1379.92 605.9ZM1361.75 607.127C1308.68 614.717 1266.57 657.361 1259.08 711.126C1259.01 710.649 1258.96 710.172 1258.89 709.696C1250.86 656.602 1209.03 614.646 1156.43 607.127C1209.03 599.608 1250.86 557.652 1258.89 504.558C1258.96 504.081 1259.02 503.605 1259.08 503.128C1266.57 556.893 1308.67 599.537 1361.75 607.127ZM1260.3 487.172C1324.65 487.834 1376.85 540.716 1377.5 605.9C1313.16 605.238 1260.95 552.356 1260.3 487.172ZM1377.51 608.354V849.49C1377.51 915.24 1325.03 968.792 1260.28 969.445V728.317C1260.28 662.568 1312.76 609.016 1377.51 608.362V608.354ZM1257.73 492.114C1257.53 496.2 1257.12 500.225 1256.52 504.196C1256.37 505.184 1256.22 506.173 1256.04 507.161C1246.19 562.841 1198.29 605.318 1140.68 605.909C1141.33 540.733 1193.54 487.843 1257.88 487.181C1257.87 488.831 1257.83 490.481 1257.74 492.114H1257.73ZM1022.88 507.161C1022.71 506.182 1022.55 505.193 1022.4 504.196C1021.8 500.225 1021.39 496.2 1021.19 492.114C1021.11 490.481 1021.07 488.831 1021.05 487.181C1078.67 487.772 1126.56 530.24 1136.41 585.928C1136.59 586.908 1136.74 587.896 1136.89 588.894C1137.49 592.865 1137.9 596.889 1138.1 600.976C1138.18 602.608 1138.23 604.259 1138.24 605.909C1080.62 605.318 1032.73 562.85 1022.88 507.161ZM663.524 588.885C663.674 587.896 663.832 586.908 664.009 585.919C673.854 530.24 721.755 487.763 779.37 487.172C778.717 552.347 726.51 605.238 662.165 605.9C662.183 604.25 662.218 602.599 662.306 600.967C662.509 596.881 662.915 592.856 663.515 588.885H663.524ZM644.001 607.127C590.93 614.717 548.824 657.361 541.335 711.126C533.845 657.361 491.748 614.717 438.668 607.127C491.74 599.537 533.845 556.893 541.335 503.128C548.824 556.893 590.921 599.537 644.001 607.127ZM542.552 487.172C606.897 487.834 659.104 540.716 659.757 605.9C595.412 605.238 543.205 552.356 542.552 487.172ZM422.931 605.9C423.583 540.724 475.79 487.834 540.135 487.172C539.482 552.347 487.276 605.238 422.931 605.9ZM404.758 607.127C351.687 614.717 309.581 657.361 302.091 711.126C294.602 657.361 252.505 614.717 199.425 607.127C252.496 599.537 294.602 556.893 302.091 503.128C309.581 556.893 351.678 599.537 404.758 607.127ZM303.309 487.172C367.654 487.834 419.861 540.716 420.513 605.9C356.168 605.238 303.962 552.356 303.309 487.172ZM183.687 605.9C184.34 540.724 236.546 487.834 300.892 487.172C300.239 552.347 248.032 605.238 183.687 605.9ZM319.064 970.663C372.135 963.073 414.241 920.429 421.731 866.665C429.22 920.429 471.317 963.073 524.397 970.663C471.326 978.253 429.22 1020.9 421.731 1074.66C414.241 1020.9 372.144 978.253 319.064 970.663ZM420.513 1090.62C356.168 1089.96 303.962 1037.07 303.309 971.89C367.654 972.552 419.861 1025.43 420.513 1090.62ZM540.135 971.89C539.482 1037.07 487.276 1089.96 422.931 1090.62C423.583 1025.44 475.79 972.552 540.135 971.89ZM558.308 970.663C611.379 963.073 653.485 920.429 660.974 866.665C661.045 867.141 661.098 867.618 661.168 868.094C669.196 921.188 711.028 963.144 763.632 970.663C711.028 978.183 669.196 1020.14 661.168 1073.23C661.098 1073.71 661.036 1074.19 660.974 1074.66C653.485 1020.9 611.388 978.253 558.308 970.663ZM659.757 1090.62C595.412 1089.96 543.205 1037.07 542.552 971.89C606.897 972.552 659.104 1025.43 659.757 1090.62ZM662.315 1085.69C662.518 1081.6 662.924 1077.57 663.524 1073.6C663.674 1072.61 663.832 1071.63 664.009 1070.64C673.854 1014.96 721.755 972.481 779.37 971.89C778.717 1037.07 726.51 1089.96 662.165 1090.62C662.183 1088.97 662.218 1087.32 662.306 1085.69H662.315ZM897.165 1070.64C897.342 1071.62 897.501 1072.61 897.651 1073.6C898.25 1077.57 898.656 1081.6 898.859 1085.69C898.939 1087.32 898.983 1088.97 899 1090.62C841.377 1090.03 793.484 1047.55 783.639 991.871C783.463 990.891 783.304 989.903 783.154 988.906C782.554 984.934 782.149 980.91 781.946 976.823C781.866 975.191 781.822 973.54 781.805 971.89C839.428 972.481 887.32 1014.96 897.165 1070.64ZM1256.52 988.914C1256.37 989.903 1256.22 990.891 1256.04 991.88C1246.19 1047.56 1198.29 1090.04 1140.68 1090.63C1141.33 1025.45 1193.54 972.561 1257.88 971.899C1257.87 973.549 1257.83 975.2 1257.74 976.832C1257.54 980.918 1257.13 984.943 1256.53 988.914H1256.52ZM1276.05 970.672C1329.12 963.082 1371.22 920.438 1378.71 866.674C1386.2 920.438 1428.3 963.082 1481.38 970.672C1428.31 978.262 1386.2 1020.91 1378.71 1074.67C1371.22 1020.91 1329.13 978.262 1276.05 970.672ZM1377.5 1090.63C1313.15 1089.97 1260.94 1037.08 1260.29 971.899C1324.64 972.561 1376.84 1025.44 1377.5 1090.63ZM1497.12 971.899C1496.46 1037.07 1444.26 1089.97 1379.91 1090.63C1380.57 1025.45 1432.77 972.561 1497.12 971.899ZM1616.74 1090.63C1552.39 1089.97 1500.19 1037.08 1499.53 971.899C1563.88 972.561 1616.09 1025.44 1616.74 1090.63ZM1617.95 589.953C1610.46 536.188 1568.36 493.544 1515.28 485.954C1568.35 478.364 1610.46 435.72 1617.95 381.955C1625.44 435.72 1667.53 478.364 1720.61 485.954C1667.54 493.544 1625.44 536.188 1617.95 589.953ZM1736.36 487.181C1735.71 552.356 1683.5 605.247 1619.16 605.909C1619.81 540.733 1672.02 487.843 1736.36 487.181ZM1378.7 589.953C1371.21 536.188 1329.11 493.544 1276.03 485.954C1329.1 478.364 1371.21 435.72 1378.7 381.955C1386.19 435.72 1428.28 478.364 1481.36 485.954C1428.29 493.544 1386.19 536.188 1378.7 589.953ZM1139.44 589.953C1139.37 589.476 1139.32 588.999 1139.25 588.523C1131.22 535.429 1089.39 493.473 1036.79 485.954C1089.39 478.435 1131.22 436.479 1139.25 383.385C1139.32 382.908 1139.38 382.432 1139.44 381.955C1146.93 435.72 1189.03 478.364 1242.11 485.954C1189.04 493.544 1146.93 536.188 1139.44 589.953ZM1021.17 237.43C1021.37 233.344 1021.78 229.32 1022.38 225.348C1022.53 224.36 1022.69 223.371 1022.87 222.383C1032.71 166.694 1080.62 124.218 1138.24 123.635V364.763C1138.24 366.828 1138.19 368.885 1138.08 370.923C1137.88 375.01 1137.48 379.034 1136.88 383.005C1136.73 383.994 1136.57 384.982 1136.39 385.971C1126.55 441.659 1078.64 484.136 1021.01 484.718V243.581C1021.01 241.516 1021.07 239.46 1021.17 237.421V237.43ZM1018.62 484.727C960.999 484.145 913.089 441.668 903.244 385.98C903.067 385 902.908 384.012 902.758 383.014C902.158 379.043 901.753 375.018 901.55 370.932C901.444 368.894 901.391 366.837 901.391 364.772V123.618C959.014 124.2 1006.92 166.677 1016.77 222.365C1016.95 223.345 1017.1 224.333 1017.25 225.331C1017.85 229.302 1018.26 233.326 1018.46 237.413C1018.57 239.451 1018.62 241.507 1018.62 243.573V484.709V484.727ZM781.919 237.43C782.122 233.344 782.528 229.32 783.128 225.348C783.278 224.36 783.437 223.371 783.613 222.383C793.458 166.694 841.368 124.218 898.991 123.635V364.763C898.991 366.828 898.939 368.885 898.833 370.923C898.63 375.01 898.224 379.034 897.624 383.005C897.474 383.994 897.315 384.982 897.139 385.971C887.294 441.659 839.383 484.136 781.76 484.718V243.581C781.76 241.516 781.813 239.46 781.919 237.421V237.43ZM421.695 589.953C414.206 536.188 372.109 493.544 319.029 485.954C372.1 478.364 414.206 435.72 421.695 381.955C429.185 435.72 471.282 478.364 524.362 485.954C471.291 493.544 429.185 536.188 421.695 589.953ZM182.443 589.953C174.954 536.188 132.857 493.544 79.7767 485.954C132.848 478.364 174.954 435.72 182.443 381.955C189.933 435.72 232.03 478.364 285.11 485.954C232.039 493.544 189.933 536.188 182.443 589.953ZM285.11 970.672C232.039 978.262 189.933 1020.91 182.443 1074.67C174.954 1020.91 132.857 978.262 79.7767 970.672C132.848 963.082 174.954 920.438 182.443 866.674C189.933 920.438 232.03 963.082 285.11 970.672ZM300.856 971.899C300.204 1037.07 247.997 1089.97 183.652 1090.63C184.305 1025.45 236.511 972.561 300.856 971.899ZM302.065 987.855C309.555 1041.62 351.651 1084.26 404.731 1091.85C351.66 1099.44 309.555 1142.09 302.065 1195.85C294.575 1142.09 252.478 1099.44 199.398 1091.85C252.47 1084.26 294.575 1041.62 302.065 987.855ZM541.317 987.855C548.807 1041.62 590.904 1084.26 643.984 1091.85C590.913 1099.44 548.807 1142.09 541.317 1195.85C533.828 1142.09 491.731 1099.44 438.651 1091.85C491.722 1084.26 533.828 1041.62 541.317 987.855ZM780.57 987.855C780.64 988.332 780.693 988.808 780.764 989.285C788.791 1042.38 830.624 1084.33 883.227 1091.85C830.624 1099.37 788.791 1141.33 780.764 1194.42C780.693 1194.9 780.631 1195.38 780.57 1195.85C773.08 1142.09 730.983 1099.44 677.903 1091.85C730.974 1084.26 773.08 1041.62 780.57 987.855ZM898.842 1340.38C898.639 1344.46 898.233 1348.49 897.633 1352.46C897.483 1353.45 897.324 1354.44 897.148 1355.43C887.303 1411.11 839.392 1453.59 781.769 1454.17V1213.04C781.769 1210.98 781.822 1208.92 781.928 1206.88C782.131 1202.8 782.537 1198.77 783.137 1194.8C783.287 1193.81 783.445 1192.83 783.622 1191.84C793.467 1136.15 841.377 1093.67 899 1093.09V1334.22C899 1336.28 898.947 1338.34 898.842 1340.38ZM901.391 1093.08C959.014 1093.66 1006.92 1136.14 1016.77 1191.83C1016.95 1192.81 1017.1 1193.8 1017.25 1194.79C1017.85 1198.77 1018.26 1202.79 1018.46 1206.88C1018.57 1208.91 1018.62 1210.97 1018.62 1213.04V1454.16C960.999 1453.58 913.089 1411.1 903.244 1355.42C903.067 1354.44 902.908 1353.45 902.758 1352.45C902.158 1348.48 901.753 1344.46 901.55 1340.37C901.444 1338.33 901.391 1336.27 901.391 1334.21V1093.08ZM1138.09 1340.38C1137.89 1344.46 1137.49 1348.49 1136.89 1352.46C1136.74 1353.45 1136.58 1354.44 1136.4 1355.43C1126.56 1411.11 1078.64 1453.59 1021.02 1454.17V1213.04C1021.02 1210.98 1021.07 1208.92 1021.18 1206.88C1021.38 1202.8 1021.79 1198.77 1022.39 1194.8C1022.54 1193.81 1022.7 1192.83 1022.87 1191.84C1032.72 1136.15 1080.63 1093.67 1138.25 1093.09V1334.22C1138.25 1336.28 1138.2 1338.34 1138.09 1340.38ZM1498.32 987.855C1505.81 1041.62 1547.9 1084.26 1600.98 1091.85C1547.91 1099.44 1505.81 1142.09 1498.32 1195.85C1490.83 1142.09 1448.73 1099.44 1395.65 1091.85C1448.72 1084.26 1490.83 1041.62 1498.32 987.855ZM1737.57 987.855C1745.06 1041.62 1787.16 1084.26 1840.24 1091.85C1787.17 1099.44 1745.06 1142.09 1737.57 1195.85C1730.08 1142.09 1687.98 1099.44 1634.9 1091.85C1687.97 1084.26 1730.08 1041.62 1737.57 987.855ZM1736.37 969.445C1671.62 968.792 1619.14 915.24 1619.14 849.49V608.354C1683.89 609.007 1736.37 662.559 1736.37 728.309V969.437V969.445ZM1634.9 607.136C1687.97 599.546 1730.08 556.901 1737.57 503.137C1745.06 556.901 1787.16 599.546 1840.24 607.136C1787.17 614.726 1745.06 657.37 1737.57 711.134C1730.08 657.37 1687.98 614.726 1634.9 607.136ZM1616.75 364.772C1616.75 430.521 1564.27 484.074 1499.52 484.727V243.59C1499.52 177.841 1552 124.288 1616.75 123.635V364.763V364.772ZM1377.5 364.772C1377.5 430.521 1325.02 484.074 1260.27 484.727V243.59C1260.27 177.841 1312.74 124.288 1377.5 123.635V364.763V364.772ZM1257.87 484.727C1193.12 484.074 1140.64 430.521 1140.64 364.772V123.618C1198.27 124.2 1246.18 166.677 1256.02 222.365C1256.2 223.345 1256.36 224.333 1256.51 225.331C1257.11 229.302 1257.51 233.326 1257.72 237.413C1257.82 239.451 1257.87 241.507 1257.87 243.573V484.709V484.727ZM779.37 243.59V484.727C721.747 484.145 673.836 441.668 663.991 385.98C663.815 385 663.656 384.012 663.506 383.014C662.906 379.043 662.5 375.018 662.297 370.932C662.192 368.894 662.139 366.837 662.139 364.772V123.618C726.89 124.271 779.37 177.823 779.37 243.573V243.59ZM659.748 364.772C659.748 430.521 607.268 484.074 542.517 484.727V243.59C542.517 177.841 594.997 124.288 659.748 123.635V364.763V364.772ZM420.496 364.772C420.496 430.521 368.016 484.074 303.265 484.727V243.59C303.265 177.841 355.745 124.288 420.496 123.635V364.763V364.772ZM181.243 364.772C181.243 430.521 128.763 484.074 64.0124 484.727V243.59C64.0124 177.841 116.492 124.288 181.243 123.635V364.763V364.772ZM181.226 605.9C116.881 605.238 64.674 552.356 64.0212 487.172C128.366 487.834 180.573 540.716 181.226 605.9ZM181.243 849.49C181.243 915.24 128.763 968.792 64.0124 969.445V728.317C64.0124 662.568 116.492 609.016 181.243 608.362V849.499V849.49ZM181.226 1090.62C116.881 1089.96 64.674 1037.07 64.0212 971.89C128.366 972.552 180.573 1025.43 181.226 1090.62ZM181.243 1334.21C181.243 1399.96 128.763 1453.51 64.0124 1454.16V1213.04C64.0124 1147.29 116.492 1093.73 181.243 1093.08V1334.21ZM303.265 1213.03C303.265 1147.28 355.745 1093.72 420.496 1093.07V1334.2C420.496 1399.95 368.016 1453.5 303.265 1454.15V1213.03ZM542.517 1213.03C542.517 1147.28 594.997 1093.72 659.748 1093.07V1334.2C659.748 1399.95 607.268 1453.5 542.517 1454.15V1213.03ZM662.139 1093.07C726.89 1093.72 779.37 1147.28 779.37 1213.03V1454.15C721.747 1453.57 673.836 1411.1 663.991 1355.41C663.815 1354.43 663.656 1353.44 663.506 1352.44C662.906 1348.47 662.5 1344.45 662.297 1340.36C662.192 1338.32 662.139 1336.27 662.139 1334.2V1093.07ZM1140.64 1334.2V1093.07C1198.27 1093.65 1246.18 1136.13 1256.02 1191.82C1256.2 1192.8 1256.36 1193.79 1256.51 1194.78C1257.11 1198.76 1257.51 1202.78 1257.72 1206.87C1257.82 1208.91 1257.87 1210.96 1257.87 1213.03V1454.15C1193.12 1453.5 1140.64 1399.95 1140.64 1334.2ZM1260.27 1213.02C1260.27 1147.27 1312.74 1093.72 1377.5 1093.06V1334.19C1377.5 1399.94 1325.02 1453.49 1260.27 1454.15V1213.02ZM1499.52 1213.02C1499.52 1147.27 1552 1093.72 1616.75 1093.06V1334.19C1616.75 1399.94 1564.27 1453.49 1499.52 1454.15V1213.02ZM1738.77 1213.02C1738.77 1147.27 1791.25 1093.72 1856 1093.06V1334.19C1856 1399.94 1803.52 1453.49 1738.77 1454.15V1213.02ZM1738.79 971.89C1803.13 972.552 1855.34 1025.43 1855.99 1090.62C1791.65 1089.96 1739.44 1037.07 1738.79 971.89ZM1738.77 728.3C1738.77 662.55 1791.25 608.998 1856 608.345V849.482C1856 915.231 1803.52 968.784 1738.77 969.437V728.309V728.3ZM1738.79 487.172C1803.13 487.834 1855.34 540.716 1855.99 605.9C1791.65 605.238 1739.44 552.356 1738.79 487.172ZM1737.58 2.43581C1802.49 2.43581 1855.36 55.6089 1855.99 121.208C1795.67 121.808 1745.79 167.418 1737.58 226.398C1729.37 167.409 1679.49 121.808 1619.17 121.208C1619.8 55.6089 1672.67 2.43581 1737.58 2.43581ZM1856.01 123.635V364.763C1856.01 430.513 1803.53 484.065 1738.78 484.718V243.581C1738.78 177.832 1791.26 124.28 1856.01 123.626V123.635ZM1498.33 2.42699C1563.24 2.42699 1616.1 55.6001 1616.74 121.199C1556.42 121.8 1506.54 167.409 1498.33 226.39C1490.11 167.4 1440.24 121.8 1379.91 121.199C1380.55 55.6001 1433.42 2.42699 1498.33 2.42699ZM1259.07 2.42699C1323.98 2.42699 1376.85 55.6001 1377.49 121.199C1317.16 121.8 1267.29 167.409 1259.07 226.39C1259 225.913 1258.95 225.436 1258.88 224.96C1250.06 166.668 1200.5 121.8 1140.66 121.199C1141.3 55.6001 1194.16 2.42699 1259.07 2.42699ZM541.317 2.42699C606.227 2.42699 659.095 55.6001 659.73 121.199C599.408 121.8 549.53 167.409 541.317 226.39C533.104 167.4 483.227 121.8 422.904 121.199C423.539 55.6001 476.407 2.42699 541.317 2.42699ZM302.065 2.42699C366.975 2.42699 419.843 55.6001 420.478 121.199C360.156 121.8 310.278 167.409 302.065 226.39C293.852 167.4 243.974 121.8 183.652 121.199C184.287 55.6001 237.155 2.42699 302.065 2.42699ZM-55.6093 364.754V122.391C-55.6093 56.2444 -2.47646 2.42699 62.8215 2.42699C128.119 2.42699 180.599 55.6001 181.235 121.199C115.169 121.861 61.6217 176.499 61.6217 243.573V484.709C-3.12926 484.056 -55.6093 430.504 -55.6093 364.754ZM-55.6093 849.473V607.109C-55.6093 541.36 -3.12045 487.798 61.6394 487.154C62.2392 548.261 107.256 598.787 165.488 607.109C106.868 615.484 61.6306 666.637 61.6306 728.291V969.419C-3.12045 968.766 -55.6005 915.213 -55.6005 849.464L-55.6093 849.473ZM-55.6093 1334.19V1091.83C-55.6093 1026.08 -3.12045 972.517 61.6394 971.872C62.2392 1032.98 107.256 1083.51 165.488 1091.83C106.868 1100.2 61.6306 1151.35 61.6306 1213.01V1454.14C-3.12045 1453.48 -55.6005 1399.93 -55.6005 1334.18L-55.6093 1334.19ZM182.443 1575.34C117.533 1575.34 64.6652 1522.16 64.03 1456.56C124.353 1455.96 174.23 1410.35 182.443 1351.37C190.656 1410.36 240.534 1455.96 300.856 1456.56C300.221 1522.16 247.353 1575.34 182.443 1575.34ZM421.695 1575.34C356.786 1575.34 303.917 1522.16 303.282 1456.56C363.605 1455.96 413.483 1410.35 421.695 1351.37C429.908 1410.36 479.786 1455.96 540.109 1456.56C539.474 1522.16 486.605 1575.34 421.695 1575.34ZM660.948 1575.34C596.038 1575.34 543.17 1522.16 542.535 1456.56C602.857 1455.96 652.735 1410.35 660.948 1351.37C661.018 1351.85 661.071 1352.33 661.142 1352.8C669.964 1411.1 719.524 1455.96 779.361 1456.56C778.726 1522.16 725.858 1575.34 660.948 1575.34ZM1378.7 1575.34C1313.79 1575.34 1260.93 1522.16 1260.29 1456.56C1320.61 1455.96 1370.49 1410.35 1378.7 1351.37C1386.92 1410.36 1436.8 1455.96 1497.12 1456.56C1496.48 1522.16 1443.61 1575.34 1378.7 1575.34ZM1617.96 1575.34C1553.05 1575.34 1500.18 1522.16 1499.54 1456.56C1559.87 1455.96 1609.74 1410.35 1617.96 1351.37C1626.17 1410.36 1676.05 1455.96 1736.37 1456.56C1735.73 1522.16 1682.87 1575.34 1617.96 1575.34ZM1975.64 1213.01V1455.37C1975.64 1521.52 1922.52 1575.34 1857.21 1575.34C1791.9 1575.34 1739.43 1522.16 1738.8 1456.56C1804.86 1455.9 1858.41 1401.26 1858.41 1334.19V1093.06C1923.16 1093.72 1975.64 1147.27 1975.64 1213.02V1213.01ZM1975.64 728.291V970.655C1975.64 1036.4 1923.15 1089.97 1858.39 1090.61C1857.79 1029.5 1812.77 978.977 1754.54 970.655C1813.16 962.279 1858.4 911.127 1858.4 849.473V608.336C1923.15 608.989 1975.63 662.542 1975.63 728.291H1975.64ZM1858.39 605.882C1857.79 544.775 1812.77 494.25 1754.54 485.927C1813.16 477.552 1858.4 426.4 1858.4 364.746V123.618C1923.15 124.271 1975.63 177.823 1975.63 243.573V485.936C1975.63 551.686 1923.14 605.247 1858.38 605.891L1858.39 605.882Z" fill="#434343" fill-opacity="0.4"/>
</svg>
